<?xml version="1.0" encoding="iso-8859-1"?>
<!-- Generator: Adobe Illustrator 19.0.0, SVG Export Plug-In . SVG Version: 6.00 Build 0)  -->
<svg version="1.1" id="Layer_1" xmlns="http://www.w3.org/2000/svg" xmlns:xlink="http://www.w3.org/1999/xlink" x="0px" y="0px"
	 viewBox="0 0 511.99 511.99" style="enable-background:new 0 0 511.99 511.99;" xml:space="preserve">
<g>
	<g>
		<g>
			<path d="M458.651,394.666V10.672c0-5.891-4.75-10.672-10.656-10.672H96.01C72.479,0,53.339,19.141,53.339,42.672v383.992
				c0,23.516,19.141,42.656,42.671,42.656h10.656v32c0,3.438,1.656,6.656,4.438,8.654c2.781,2,6.344,2.547,9.594,1.469l28.64-9.545
				l28.625,9.545c1.109,0.359,2.234,0.547,3.375,0.547c2.203,0,4.391-0.688,6.234-2.016c2.781-1.998,4.438-5.217,4.438-8.654v-32
				h234.644h10.687h10.654c5.906,0,10.656-4.766,10.656-10.656s-4.75-10.672-10.656-10.672v-42.67
				C453.901,405.322,458.651,400.556,458.651,394.666z M74.667,341.322c5.89,0,10.671-4.766,10.671-10.656
				s-4.781-10.672-10.671-10.672v-42.67c5.89,0,10.671-4.766,10.671-10.656s-4.781-10.673-10.671-10.673v-42.663
				c5.89,0,10.671-4.773,10.671-10.663c0-5.891-4.781-10.672-10.671-10.672v-42.663c5.89,0,10.671-4.773,10.671-10.664
				c0-5.891-4.781-10.672-10.671-10.672V85.335c5.89,0,10.671-4.773,10.671-10.664c0-5.891-4.781-10.672-10.671-10.672V42.672
				c0-11.766,9.562-21.336,21.343-21.336h10.656v362.658H96.01c-7.781,0-15.062,2.094-21.343,5.734V341.322z M170.665,486.523
				L170.665,486.523l-17.969-5.984c-2.187-0.734-4.546-0.734-6.734,0l-17.953,5.984V437.32h42.656V486.523z M426.652,415.992
				h-74.655c-5.906,0-10.656,4.781-10.656,10.672s4.75,10.656,10.656,10.656h74.655v10.672H192.008V437.32
				c5.875,0,10.656-4.766,10.656-10.656s-4.781-10.672-10.656-10.672h-85.342c-5.89,0-10.656,4.781-10.656,10.672
				s4.766,10.656,10.656,10.656v10.672H96.01c-11.781,0-21.343-9.578-21.343-21.328c0-11.766,9.562-21.342,21.343-21.342h330.642
				V415.992z M437.339,383.994h-10.687H128.009V21.336h309.33V383.994z"/>
			<path d="M160.009,213.332h245.332c5.874,0,10.655-4.773,10.655-10.663V74.671c0-5.891-4.781-10.672-10.655-10.672H160.009
				c-5.906,0-10.671,4.781-10.671,10.672v127.998C149.337,208.558,154.102,213.332,160.009,213.332z M170.665,85.335h223.988
				v106.662H170.665V85.335z"/>
			<path d="M362.653,127.998H202.664c-5.891,0-10.656,4.781-10.656,10.672s4.766,10.664,10.656,10.664h159.989
				c5.906,0,10.688-4.773,10.688-10.664S368.559,127.998,362.653,127.998z"/>
		</g>
	</g>
</g>
<g>
</g>
<g>
</g>
<g>
</g>
<g>
</g>
<g>
</g>
<g>
</g>
<g>
</g>
<g>
</g>
<g>
</g>
<g>
</g>
<g>
</g>
<g>
</g>
<g>
</g>
<g>
</g>
<g>
</g>
</svg>
