<?xml version="1.0" encoding="iso-8859-1"?>
<!-- Generator: Adobe Illustrator 19.0.0, SVG Export Plug-In . SVG Version: 6.00 Build 0)  -->
<svg version="1.1" id="Layer_1" xmlns="http://www.w3.org/2000/svg" xmlns:xlink="http://www.w3.org/1999/xlink" x="0px" y="0px"
	 viewBox="0 0 511.99 511.99" style="enable-background:new 0 0 511.99 511.99;" xml:space="preserve">
<g>
	<g>
		<path d="M400.216,357.197c91.654-91.654,91.654-240.238,0-331.885c-4.156-4.172-10.922-4.172-15.078,0
			c-4.172,4.164-4.172,10.914,0,15.086c20.375,20.367,36.138,44.109,46.857,70.561c10.375,25.562,15.625,52.577,15.625,80.296
			c0,27.718-5.25,54.726-15.625,80.288c-10.719,26.453-26.482,50.201-46.857,70.576c-20.375,20.359-44.109,36.125-70.562,46.859
			c-25.561,10.359-52.576,15.609-80.295,15.609c-27.718,0-54.733-5.25-80.295-15.609c-26.453-10.734-50.187-26.5-70.561-46.859
			c-4.172-4.188-10.921-4.188-15.093,0c-4.156,4.156-4.156,10.906,0,15.078c43.108,43.109,98.826,65.936,155.278,68.482v64.969
			h-74.67c-5.891,0-10.656,4.781-10.656,10.688c0,5.875,4.766,10.654,10.656,10.654h170.684c5.891,0,10.656-4.779,10.656-10.654
			c0-5.906-4.766-10.688-10.656-10.688h-74.67v-64.969C301.405,423.117,357.106,400.307,400.216,357.197z"/>
	</g>
</g>
<g>
	<g>
		<path d="M234.28,0C128.657,0,43.034,85.624,43.034,191.255c0,105.616,85.623,191.239,191.246,191.239
			s191.246-85.623,191.246-191.239C425.526,85.624,339.903,0,234.28,0z M302.454,38.112c19.748,8.617,37.92,21.163,52.998,36.679
			c15.391,15.836,27.594,34.772,35.641,55.226c-7.641,4.734-14.328,12.133-15.859,18.531c-3.641-0.055-9.219-1.547-14.625-3
			c-6.641-1.773-13.5-3.617-19.625-3.617c-8.922,0-13.703,3.969-16.141,7.297c-4.018,5.441-4.174,13.089-0.455,20.449
			c3.234,6.383,9.172,12.07,16.719,16.016c7.703,4.023,16.844,6.258,27.219,6.648c-2.672,6.234-8.031,16.726-18.234,34.233
			c-0.75,1.266-1.406,2.398-1.969,3.383c-5.719,9.883-7.625,20.039-9.469,29.859c-1.531,8.109-2.969,15.758-6.516,22.242
			c-3.078,5.625-7.984,10.656-13.172,15.969c-2.719,2.797-5.547,5.688-8.203,8.779c-9.623,11.188-16.936,17.344-26.701,16.5
			c-2.672-0.234-5.391-4.906-7.281-12.5c-2.188-8.904-2.906-18.123-3.656-27.904c-0.844-11.148-1.734-22.656-4.953-34.281
			c-3.625-13.125-11.282-21.961-22.75-26.258c-9.328-3.492-19.875-3.492-29.171-3.492h-1c-1.625,0-3.25,0-4.875-0.023
			c-18.453-0.211-29.437-11.148-30.14-30.015c-0.656-17.57,3.656-31.305,12.812-40.819c10.625-11.031,24.921-13.516,29.093-13.516
			c0.016,0,0.016,0,0.016,0l1.516,0.273c24.312,4.336,31.905,6.555,33.984,7.633c6.484,3.578,13.406,5.391,20.578,5.391
			c11.953,0,24.109-5.406,30.951-13.758c4.125-5.023,5.812-10.656,4.766-15.867c-1.5-7.539-8.297-13.82-37.42-21.788
			c-15.844-4.336-34.109-7.875-44.406-8.617c-0.516-0.039-1.062-0.062-1.609-0.062c-3.093,0-6.359,0.594-9.515,1.164
			c-1.391,0.242-2.781,0.5-4.094,0.688c0.094-0.133,0.188-0.273,0.297-0.406c13.046-17.203,33.109-25.148,54.343-33.562
			c8.203-3.25,16.688-6.616,24.812-10.569C299.235,43.62,300.969,41.51,302.454,38.112z M99.205,275.465
			c-0.844,2.875-3.125,5.906-6.766,9.031c-0.047,0.031-0.094,0.078-0.156,0.125c-3.516-5.344-6.734-10.875-9.625-16.578
			c-0.141-0.281-0.281-0.57-0.422-0.859c-0.516-1.039-1.031-2.086-1.531-3.141c-0.234-0.469-0.453-0.953-0.672-1.43
			c-0.406-0.891-0.812-1.789-1.219-2.695c-0.219-0.508-0.453-1.023-0.672-1.531c-0.391-0.93-0.781-1.853-1.156-2.782
			c-0.203-0.484-0.406-0.961-0.594-1.444c-0.453-1.156-0.906-2.32-1.343-3.484c-0.094-0.25-0.188-0.492-0.281-0.734
			c-1.109-3.047-2.141-6.109-3.094-9.203c-0.031-0.102-0.047-0.203-0.078-0.312c-0.438-1.414-0.844-2.836-1.234-4.258
			c-0.062-0.227-0.125-0.453-0.188-0.688c-0.359-1.32-0.688-2.656-1.016-3.984c-0.062-0.242-0.125-0.484-0.172-0.727
			c-0.328-1.383-0.641-2.766-0.938-4.148c-0.031-0.172-0.078-0.336-0.109-0.508c-0.984-4.727-1.766-9.5-2.344-14.305
			c-0.016-0.062-0.016-0.125-0.016-0.188c0.953,1.43,1.797,2.648,2.484,3.617c2.828,3.93,5.734,7.773,8.562,11.5
			c3.641,4.789,7.078,9.32,10.203,13.859C100.627,260.644,100.502,271.058,99.205,275.465z M354.435,311.4
			c-15.609,15.609-33.781,27.875-54.014,36.422c-20.938,8.859-43.188,13.344-66.141,13.344s-45.202-4.484-66.124-13.344
			c-20.234-8.547-38.406-20.812-54.03-36.422c-3.078-3.078-6.016-6.264-8.844-9.545c6.141-5.203,12.078-12.547,14.391-20.359
			c5.359-18.242-5.188-38.328-15.266-52.992c-6-8.703-12.843-17.125-19-25.702c-3.328-4.633-11.625-18.367-20.031-30.188
			c1.781-16.367,5.891-32.28,12.328-47.499c8.563-20.226,20.813-38.397,36.422-54.015c15.625-15.609,33.796-27.866,54.03-36.421
			c20.921-8.852,43.171-13.344,66.124-13.344c16.359,0,32.344,2.289,47.766,6.805c-5.891,2.648-11.984,5.078-18.359,7.609
			c-23.031,9.125-46.828,18.562-63.483,40.499c-7.938,10.469-8.688,21.578-1.953,28.999c3.594,3.945,8.687,5.953,15.171,5.953
			c3.922,0,7.859-0.711,11.359-1.344c2.125-0.383,4.546-0.82,5.734-0.82h0.078c7.875,0.57,22.719,3.367,36.109,6.805
			c11.188,2.883,18.516,5.43,22.906,7.297c-2.672,1.711-6.625,3.32-11.375,3.32c-3.516,0-6.984-0.914-10.266-2.727
			c-6.062-3.359-20.016-6.305-40.546-9.969l-1.875-0.336c-1-0.18-2.109-0.266-3.406-0.266c-8.688,0-29.171,4.188-44.452,20.055
			c-13.344,13.852-19.656,32.827-18.781,56.413c1.141,30.366,21.25,50.21,51.233,50.554c1.703,0.016,3.406,0.023,5.109,0.023h1
			c19.937,0,27.796,1.211,31.359,14.102c2.672,9.625,3.438,19.625,4.25,30.219c0.781,10.219,1.594,20.779,4.218,31.404
			c5.532,22.281,17.266,27.859,26.157,28.625c1.203,0.094,2.422,0.156,3.609,0.156c18.859,0,31.107-12.391,41.092-24
			c2.234-2.594,4.688-5.109,7.297-7.781c5.969-6.125,12.141-12.436,16.625-20.639c5.172-9.438,6.984-19.141,8.766-28.523
			c1.578-8.438,3.078-16.406,6.969-23.141c0.547-0.953,1.203-2.07,1.922-3.305c21.922-37.569,26.766-51.03,21.609-59.999
			c-2.531-4.414-7.359-6.891-12.719-6.484c-1.953,0.148-3.891,0.227-5.734,0.227c-13.172,0-20.734-3.648-24.75-6.969
			c2.547,0.547,5.391,1.312,8.172,2.055c6.844,1.836,13.906,3.727,20.344,3.727c11.078,0,18.656-5.938,20.5-15.953
			c0.672-0.984,1.906-2.28,3.328-3.507c3.281,13.265,4.938,26.921,4.938,40.835c0,22.944-4.484,45.194-13.344,66.132
			C382.295,277.62,370.045,295.792,354.435,311.4z"/>
	</g>
</g>
<g>
</g>
<g>
</g>
<g>
</g>
<g>
</g>
<g>
</g>
<g>
</g>
<g>
</g>
<g>
</g>
<g>
</g>
<g>
</g>
<g>
</g>
<g>
</g>
<g>
</g>
<g>
</g>
<g>
</g>
</svg>
