<?xml version="1.0" encoding="iso-8859-1"?>
<!-- Generator: Adobe Illustrator 19.0.0, SVG Export Plug-In . SVG Version: 6.00 Build 0)  -->
<svg version="1.1" id="Layer_1" xmlns="http://www.w3.org/2000/svg" xmlns:xlink="http://www.w3.org/1999/xlink" x="0px" y="0px"
	 viewBox="0 0 512 512" style="enable-background:new 0 0 512 512;" xml:space="preserve">
<g>
	<g>
		<path d="M512,133.332c0-25.977-3.875-51.047-11.062-74.672c-22.75,74.734-78.781,134.961-150.812,163.461
			c-24.906-14.086-53.25-22.773-83.469-24.477c0-0.102,0-0.211,0-0.312c0-5.891-4.766-10.672-10.656-10.672
			s-10.656,4.781-10.656,10.672c0,0.094,0,0.188,0,0.281c-30.344,1.609-58.812,10.273-83.805,24.375
			C89.664,193.434,33.781,133.277,11.062,58.66C3.875,82.285,0,107.355,0,133.332c0,72.094,29.812,137.227,77.773,183.758
			c-9.062,22.312-14.07,46.688-14.07,72.25v64h384v-42.688V389.34c0-25.406-4.953-49.656-13.891-71.844
			C482.016,270.934,512,205.645,512,133.332z M482.843,143.566c2.719-3.843,5.313-7.75,7.813-11.703c0,0.484,0,0.977,0,1.469
			c0,21.391-2.828,42.344-8.422,62.594c-13.984-8.359-20.953-16.531-24.297-21.844C466.937,164.527,475.249,154.348,482.843,143.566
			z M422.594,205.738c6.875-5.187,13.5-10.679,19.875-16.453c5.938,8.078,16,17.961,32.969,27.344
			c-1.031,2.695-2.078,5.375-3.203,8.039c-3.906,9.234-8.391,18.156-13.391,26.75c-18.047-12.109-28.406-24.328-34.078-32.93
			c-2.547-3.875-4.391-7.328-5.672-10.156C420.25,207.473,421.438,206.613,422.594,205.738z M401.219,220.309
			c6.5,12.844,19.719,31.484,46.062,49.031c-6.969,9.781-14.719,19.016-23.188,27.703c-13.062-23.812-31.062-44.547-52.578-60.859
			C381.719,231.496,391.625,226.215,401.219,220.309z M21.335,133.332c0.001-0.492,0.001-0.984,0.001-1.469
			c2.5,3.961,5.109,7.859,7.812,11.703c7.594,10.781,15.922,20.961,24.914,30.516c-3.352,5.32-10.305,13.484-24.297,21.844
			C24.171,175.676,21.335,154.723,21.335,133.332z M39.765,224.668c-1.124-2.664-2.179-5.344-3.203-8.039
			c16.961-9.383,27.031-19.258,32.977-27.344c6.359,5.773,12.984,11.266,19.875,16.453c1.164,0.875,2.336,1.742,3.508,2.594
			c-1.164,2.547-2.773,5.609-4.961,9.031c-5.672,8.914-16.164,21.57-34.805,34.055C48.148,242.824,43.672,233.902,39.765,224.668z
			 M64.727,269.34c26.328-17.547,39.547-36.188,46.055-49.031c9.469,5.828,19.258,11.062,29.336,15.719
			c-21.508,16.234-39.492,36.906-52.594,60.625C79.203,288.09,71.586,278.965,64.727,269.34z M426.375,431.996h-42.672h-85.328
			h-85.336h-85.336H85.039v-21.344h42.664h85.336h85.336h85.328h42.672V431.996z M85.039,389.34
			c0-23.062,4.508-45.406,13.398-66.438c8.602-20.312,20.906-38.562,36.586-54.25s33.938-28,54.258-36.594
			c21.023-8.883,43.375-13.398,66.422-13.398s45.391,4.516,66.422,13.398c20.328,8.594,38.578,20.906,54.25,36.594
			c15.688,15.688,28,33.938,36.594,54.25c8.891,21.031,13.406,43.375,13.406,66.438H85.039z"/>
	</g>
</g>
<g>
	<g>
		<path d="M127.703,410.652c-5.891,0-10.664,4.781-10.664,10.688c0,5.875,4.773,10.656,10.664,10.656s10.672-4.781,10.672-10.656
			C138.375,415.434,133.594,410.652,127.703,410.652z"/>
	</g>
</g>
<g>
	<g>
		<path d="M213.039,410.652c-5.891,0-10.664,4.781-10.664,10.688c0,5.875,4.773,10.656,10.664,10.656s10.664-4.781,10.664-10.656
			C223.703,415.434,218.93,410.652,213.039,410.652z"/>
	</g>
</g>
<g>
	<g>
		<path d="M298.375,410.652c-5.89,0-10.672,4.781-10.672,10.688c0,5.875,4.781,10.656,10.672,10.656s10.656-4.781,10.656-10.656
			C309.031,415.434,304.265,410.652,298.375,410.652z"/>
	</g>
</g>
<g>
	<g>
		<path d="M383.703,410.652c-5.891,0-10.672,4.781-10.672,10.688c0,5.875,4.781,10.656,10.672,10.656s10.672-4.781,10.672-10.656
			C394.375,415.434,389.594,410.652,383.703,410.652z"/>
	</g>
</g>
<g>
</g>
<g>
</g>
<g>
</g>
<g>
</g>
<g>
</g>
<g>
</g>
<g>
</g>
<g>
</g>
<g>
</g>
<g>
</g>
<g>
</g>
<g>
</g>
<g>
</g>
<g>
</g>
<g>
</g>
</svg>
