<?xml version="1.0" encoding="iso-8859-1"?>
<!-- Generator: Adobe Illustrator 19.0.0, SVG Export Plug-In . SVG Version: 6.00 Build 0)  -->
<svg version="1.1" id="Layer_1" xmlns="http://www.w3.org/2000/svg" xmlns:xlink="http://www.w3.org/1999/xlink" x="0px" y="0px"
	 viewBox="0 0 512 512" style="enable-background:new 0 0 512 512;" xml:space="preserve">
<g>
	<g>
		<path d="M507.906,298.869v-0.031L406.75,181.986c-0.406-0.555-0.844-1.07-1.344-1.547l-0.062-0.086
			c-0.016,0.008-0.016,0.008-0.016,0.016c-1.906-1.781-4.453-2.883-7.266-2.883c-5.906,0-10.688,4.781-10.688,10.672
			c0,2.781,1.094,5.312,2.844,7.219c-1.719,1.625-3.422,3.234-5.125,4.828c-5.781-5.672-13.688-9.188-22.438-9.188
			c-1.594,0-3.156,0.125-4.688,0.359c-8.438-12.727-20.344-28.344-35.719-43.086c-45.25-43.391-98.672-57.984-154.484-42.195
			c-52.336,14.797-86.852,55.109-99.812,116.578c-4.398,20.852-5.602,40.695-5.602,56.164c-7.273,3.031-13.18,8.656-16.562,15.75
			c-16.336-4.844-26.836-9.531-30-11.031c-0.328-0.188-0.664-0.344-1.008-0.5h-0.008c-1.266-0.531-2.656-0.812-4.109-0.812
			C4.773,282.244,0,287.025,0,292.9c0,4.375,2.641,8.156,6.406,9.781c92.961,81.938,179.188,109.406,252.969,109.406
			c115.625,0,200.75-67.375,233.625-98.188c1.969,2.438,4.969,4,8.344,4c5.875,0,10.656-4.75,10.656-10.656
			C512,303.838,510.391,300.807,507.906,298.869z M362.656,212.362c2.406,0,4.609,0.797,6.391,2.141
			c-5.359,4.546-10.703,8.905-16.016,13.054c-0.656-1.375-1.031-2.906-1.031-4.539C352,217.143,356.781,212.362,362.656,212.362z
			 M88.938,226.555c11.468-53.67,39.937-87.295,84.632-99.936c26.742-7.562,52.68-7.18,77.102,1.148
			c19.766,6.734,38.734,18.68,56.375,35.5c13.516,12.891,24.203,26.719,31.969,38.203c-5.188,5.688-8.359,13.25-8.359,21.547
			c0,6.383,1.875,12.352,5.109,17.32c-74.141,52.188-144.922,66.875-201.047,66.875c-9.859,0-19.258-0.438-28.148-1.219
			c-0.992-13.5-10.312-24.625-22.844-28.344C83.782,263.399,84.938,245.305,88.938,226.555z M74.664,297.682
			c4.008,0,7.508,2.219,9.328,5.5c-5.68-0.906-11.078-1.906-16.156-3C69.688,298.619,72.07,297.682,74.664,297.682z M137.055,363.62
			c-24.594-10.907-49.102-25.095-73.453-42.532c18.656,3.969,41.148,7.094,66.562,7.438
			C134.516,336.276,142.047,352.338,137.055,363.62z M205.039,385.369c-16.078-3.156-32.148-7.719-48.188-13.688
			c4.117-9.75,4.242-21.625,0.195-34.688c-0.984-3.188-2.133-6.188-3.328-8.969c14.883-0.844,29.695-2.625,44.398-5.375
			c2.126,2.158,7.618,8.314,10.954,17.845C213.867,354.182,212.508,369.244,205.039,385.369z M428.204,337.586
			c-23.766,15.502-48.579,27.846-73.798,36.658c-31.266,10.938-63.234,16.5-95.031,16.5c-10.859,0-21.734-0.656-32.609-1.938
			c9.641-24.406,6.742-43.875,1.969-56.688c-2.164-5.812-4.844-10.688-7.461-14.625c16.031-4.125,31.883-9.406,47.523-15.844
			c34.062-14.031,67.016-33.5,98.516-58.219l72.375,86.344C436.032,332.368,432.204,334.993,428.204,337.586z M456.781,316.963
			l-72.969-87.031c6.844-5.875,13.625-11.992,20.328-18.352l74.734,86.32C473.25,303.213,465.828,309.775,456.781,316.963z"/>
	</g>
</g>
<g>
	<g>
		<path d="M351.766,340.369c5.891,0,10.672-4.781,10.672-10.688c0-5.874-4.782-10.656-10.672-10.656
			c-0.609,0-1.203,0.062-1.781,0.156c-0.406-1.188-0.875-2.312-1.422-3.438c0.484-0.344,0.938-0.719,1.375-1.125
			c4.156-4.188,4.156-10.938,0-15.094c-4.172-4.156-10.922-4.156-15.094,0c-0.422,0.438-0.797,0.875-1.125,1.344
			c-1.125-0.531-2.281-1-3.453-1.406c0.109-0.562,0.172-1.156,0.172-1.781c0-5.875-4.781-10.656-10.688-10.656
			c-5.875,0-10.656,4.781-10.656,10.656c0,0.625,0.062,1.219,0.156,1.781c-1.172,0.406-2.328,0.875-3.438,1.406
			c-0.344-0.469-0.719-0.906-1.125-1.344c-4.188-4.156-10.938-4.156-15.094,0s-4.156,10.906,0,15.094
			c0.422,0.406,0.875,0.781,1.359,1.125c-0.547,1.125-1.016,2.25-1.422,3.438c-0.578-0.094-1.156-0.156-1.766-0.156
			c-5.891,0-10.672,4.781-10.672,10.656c0,5.906,4.781,10.688,10.672,10.688c0.609,0,1.188-0.062,1.766-0.156
			c0.406,1.156,0.875,2.312,1.422,3.438c-0.484,0.312-0.938,0.688-1.359,1.125c-4.156,4.156-4.156,10.906,0,15.094
			c4.156,4.156,10.922,4.156,15.094,0c0.406-0.438,0.781-0.906,1.125-1.375c1.125,0.531,2.266,1,3.438,1.438
			c-0.094,0.562-0.156,1.156-0.156,1.75c0,5.906,4.781,10.688,10.656,10.688c5.906,0,10.688-4.781,10.688-10.688
			c0-0.594-0.062-1.188-0.172-1.75c1.172-0.438,2.328-0.906,3.453-1.438c0.328,0.469,0.703,0.938,1.125,1.375
			c4.172,4.156,10.922,4.156,15.094,0c4.156-4.188,4.156-10.938,0-15.094c-0.438-0.438-0.891-0.812-1.375-1.125
			c0.547-1.125,1.016-2.281,1.422-3.438C350.563,340.307,351.157,340.369,351.766,340.369z M319.75,340.369
			c-5.875,0-10.656-4.812-10.656-10.688s4.781-10.656,10.656-10.656c5.891,0,10.688,4.781,10.688,10.656
			S325.641,340.369,319.75,340.369z"/>
	</g>
</g>
<g>
	<g>
		<path d="M410.61,227.9c-5.891,0-10.672,4.782-10.672,10.688c0,5.875,4.781,10.656,10.672,10.656s10.672-4.781,10.672-10.656
			C421.282,232.682,416.501,227.9,410.61,227.9z"/>
	</g>
</g>
<g>
	<g>
		<path d="M433.094,255.025c-5.906,0-10.688,4.781-10.688,10.656c0,5.907,4.782,10.688,10.688,10.688
			c5.875,0,10.656-4.781,10.656-10.688C443.75,259.806,438.969,255.025,433.094,255.025z"/>
	</g>
</g>
<g>
	<g>
		<path d="M454.406,282.119c-5.875,0-10.656,4.781-10.656,10.688c0,5.875,4.781,10.656,10.656,10.656
			c5.906,0,10.688-4.781,10.688-10.656C465.094,286.901,460.313,282.119,454.406,282.119z"/>
	</g>
</g>
<g>
</g>
<g>
</g>
<g>
</g>
<g>
</g>
<g>
</g>
<g>
</g>
<g>
</g>
<g>
</g>
<g>
</g>
<g>
</g>
<g>
</g>
<g>
</g>
<g>
</g>
<g>
</g>
<g>
</g>
</svg>
